HIERARCHY
ROOT Hips
{
	OFFSET 0.000000 0.000000 0.000000
	CHANNELS 6 Xposition Yposition Zposition Xrotation Zrotation Yrotation
	JOINT Spine
	{
		OFFSET 0.000000 0.000006 -11.335082
		CHANNELS 6 Xposition Yposition Zposition Xrotation Zrotation Yrotation
		JOINT Spine1
		{
			OFFSET 0.000000 0.000013 -25.648983
			CHANNELS 6 Xposition Yposition Zposition Xrotation Zrotation Yrotation
			JOINT Neck
			{
				OFFSET 0.000000 0.000014 -28.413631
				CHANNELS 6 Xposition Yposition Zposition Xrotation Zrotation Yrotation
				JOINT Head
				{
					OFFSET 0.000000 2.764664 -21.426069
					CHANNELS 6 Xposition Yposition Zposition Xrotation Zrotation Yrotation
					End Site
					{
						OFFSET 0.000000 0.000013 -27.646542
					}
				}
			}
			JOINT LeftShoulder
			{
				OFFSET 5.517776 -0.602992 -23.183556
				CHANNELS 6 Xposition Yposition Zposition Xrotation Zrotation Yrotation
				JOINT LeftArm
				{
					OFFSET 15.992190 0.000000 0.000000
					CHANNELS 6 Xposition Yposition Zposition Xrotation Zrotation Yrotation
					JOINT LeftForeArm
					{
						OFFSET 41.472099 0.000000 0.000000
						CHANNELS 6 Xposition Yposition Zposition Xrotation Zrotation Yrotation
						JOINT LeftHand
						{
							OFFSET 37.091511 0.000000 0.000000
							CHANNELS 6 Xposition Yposition Zposition Xrotation Zrotation Yrotation
							End Site
							{
								OFFSET 20.734911 0.000000 0.000000
							}
						}
					}
				}
			}
			JOINT RightShoulder
			{
				OFFSET -5.529053 -0.602992 -23.183556
				CHANNELS 6 Xposition Yposition Zposition Xrotation Zrotation Yrotation
				JOINT RightArm
				{
					OFFSET -15.992190 0.000000 0.000000
					CHANNELS 6 Xposition Yposition Zposition Xrotation Zrotation Yrotation
					JOINT RightForeArm
					{
						OFFSET -41.472099 0.000000 0.000000
						CHANNELS 6 Xposition Yposition Zposition Xrotation Zrotation Yrotation
						JOINT RightHand
						{
							OFFSET -37.091511 0.000000 0.000000
							CHANNELS 6 Xposition Yposition Zposition Xrotation Zrotation Yrotation
							End Site
							{
								OFFSET -20.734911 0.000000 0.000000
							}
						}
					}
				}
			}
		}
	}
	JOINT LeftUpLeg
	{
		OFFSET 13.823269 0.000000 0.000000
		CHANNELS 6 Xposition Yposition Zposition Xrotation Zrotation Yrotation
		JOINT LeftLeg
		{
			OFFSET 0.000000 -0.000035 71.945976
			CHANNELS 6 Xposition Yposition Zposition Xrotation Zrotation Yrotation
			JOINT LeftFoot
			{
				OFFSET 0.000000 -0.000028 57.796143
				CHANNELS 6 Xposition Yposition Zposition Xrotation Zrotation Yrotation
				JOINT LeftToeBase
				{
					OFFSET 0.000000 20.734900 8.985126
					CHANNELS 6 Xposition Yposition Zposition Xrotation Zrotation Yrotation
					End Site
					{
						OFFSET 0.000000 5.529309 0.000000
					}
				}
			}
		}
	}
	JOINT RightUpLeg
	{
		OFFSET -13.823269 0.000000 0.000000
		CHANNELS 6 Xposition Yposition Zposition Xrotation Zrotation Yrotation
		JOINT RightLeg
		{
			OFFSET 0.000000 -0.000035 71.945976
			CHANNELS 6 Xposition Yposition Zposition Xrotation Zrotation Yrotation
			JOINT RightFoot
			{
				OFFSET 0.000000 -0.000028 57.796143
				CHANNELS 6 Xposition Yposition Zposition Xrotation Zrotation Yrotation
				JOINT RightToeBase
				{
					OFFSET 0.000000 20.734900 8.985126
					CHANNELS 6 Xposition Yposition Zposition Xrotation Zrotation Yrotation
					End Site
					{
						OFFSET 0.000000 5.529309 0.000000
					}
				}
			}
		}
	}
}
MOTION
Frames: 5
Frame Time: 0.041667
-4.722134 -18.550907 -118.629654 9.004196 0.648088 2.855058 -0.000002 -0.000005 -11.335080 7.642985 -2.305859 -4.416918 -0.000001 0.000012 -25.649004 4.005812 -0.854086 0.256925 -0.000004 0.000013 -28.413601 12.812443 -20.390288 18.234057 -0.000009 2.764633 -21.426111 14.817679 -21.095574 -27.895444 5.517775 -0.602999 -23.183535 -2.091668 10.572633 2.427925 15.992205 0.000011 -0.000018 23.989047 11.732240 -18.484876 41.472088 -0.000015 -0.000008 -12.681557 6.693453 15.880919 37.091526 -0.000004 0.000019 -13.786402 -0.480039 38.992327 -5.529050 -0.602998 -23.183523 -0.147045 -6.360621 -9.108909 -15.992181 0.000030 0.000010 84.526405 -35.041521 -28.117618 -41.472122 -0.000026 -0.000014 237.278969 225.998843 -271.726235 -37.091503 -0.000005 0.000001 10.006078 0.045776 -51.636876 13.823269 -0.000010 -0.000018 -11.705709 12.356076 28.274328 -0.000015 -0.000032 71.945961 27.946248 -29.508289 -27.680791 -0.000014 -0.000026 57.796116 -3.910425 -19.327417 -7.948490 -0.000001 20.734915 8.985125 -0.000003 -0.000005 -0.000001 -13.823270 -0.000014 -0.000001 -21.568388 -1.722908 -33.698395 0.000007 -0.000038 71.945984 34.566710 3.157134 32.909484 0.000024 -0.000021 57.796139 -24.730180 29.829803 -7.313253 -0.000003 20.734907 8.985141 0.000001 0.000001 0.000001 
-4.874793 -18.614700 -118.500702 9.061386 0.615306 2.963362 0.000002 0.000007 -11.335078 7.571224 -2.242809 -4.412730 -0.000001 0.000013 -25.649015 3.942831 -0.829084 0.168666 -0.000006 0.000013 -28.413651 12.836570 -20.545083 18.270640 0.000001 2.764676 -21.426105 14.910016 -21.225474 -28.088214 5.517773 -0.602999 -23.183563 -2.247764 10.770196 2.486784 15.992200 0.000003 -0.000021 21.980054 10.517869 -18.044456 41.472095 -0.000001 0.000006 -9.727166 5.462442 12.192404 37.091518 -0.000029 -0.000013 -10.700700 -1.121880 38.295727 -5.529053 -0.602997 -23.183556 -0.121703 -6.422683 -9.122369 -15.992175 0.000018 0.000014 84.166714 -34.698064 -27.871461 -41.472065 -0.000001 0.000004 237.717467 226.310764 -271.759375 -37.091476 0.000002 0.000037 10.298335 -0.362165 -51.461381 13.823272 0.000001 -0.000014 -11.765881 12.489690 28.316019 -0.000024 -0.000030 71.945953 28.104135 -29.541459 -27.890692 0.000001 -0.000023 57.796124 -3.909219 -19.331459 -7.966048 -0.000008 20.734901 8.985126 -0.000001 -0.000004 -0.000002 -13.823273 0.000002 0.000005 -21.831141 -1.851957 -33.907518 0.000012 -0.000040 71.945969 34.960593 2.786680 33.170821 0.000011 -0.000031 57.796162 -24.950818 29.944468 -7.420898 -0.000001 20.734915 8.985125 -0.000000 -0.000006 -0.000002 
-5.069740 -18.637569 -118.360634 9.028415 0.504041 3.014189 0.000000 0.000008 -11.335090 7.474638 -2.092952 -4.386175 0.000000 0.000012 -25.648973 3.944077 -0.776774 0.141712 -0.000004 0.000028 -28.413631 12.877604 -20.716640 18.319834 0.000003 2.764677 -21.426079 14.948501 -21.381999 -28.303037 5.517778 -0.602982 -23.183550 -2.357511 10.959303 2.606051 15.992198 0.000010 -0.000014 19.100959 8.972177 -17.633399 41.472103 -0.000014 0.000030 -6.204880 4.671551 8.261075 37.091526 -0.000016 -0.000052 -7.231583 -2.034854 37.413276 -5.529048 -0.602986 -23.183569 -0.138560 -6.539014 -9.121759 -15.992179 -0.000005 0.000037 83.762694 -34.485509 -27.589390 -41.472118 -0.000001 -0.000001 237.982123 226.343098 -271.599850 -37.091503 0.000002 0.000003 10.423518 0.102547 -51.663930 13.823275 0.000013 0.000000 -11.728616 12.684579 28.431151 -0.000027 -0.000025 71.945969 28.259148 -29.531102 -28.123225 -0.000013 -0.000030 57.796139 -3.920571 -19.351828 -7.994755 -0.000006 20.734913 8.985126 -0.000001 -0.000003 -0.000003 -13.823270 0.000011 0.000011 -21.967335 -1.860189 -34.086766 -0.000002 -0.000034 71.945953 35.262252 2.237066 33.366587 0.000018 -0.000031 57.796169 -25.221988 30.025266 -7.478925 -0.000003 20.734901 8.985126 0.000000 -0.000001 0.000002 
-5.258718 -18.671661 -118.219437 9.035400 0.409741 3.060810 -0.000001 0.000010 -11.335083 7.372117 -1.937038 -4.346919 -0.000000 0.000024 -25.648981 3.891079 -0.722954 0.148044 -0.000004 0.000009 -28.413631 12.911113 -20.896337 18.387093 0.000013 2.764655 -21.426071 15.016304 -21.540649 -28.548406 5.517776 -0.603007 -23.183537 -2.374473 11.133870 2.758691 15.992198 -0.000005 0.000021 17.593193 8.256543 -17.263935 41.472092 -0.000005 0.000006 -3.753502 3.491868 5.065341 37.091503 -0.000014 -0.000033 -4.722939 -2.501766 36.079798 -5.529049 -0.603005 -23.183521 -0.114976 -6.590128 -9.156283 -15.992194 0.000002 0.000025 83.440118 -34.291176 -27.434051 -41.472107 -0.000067 0.000008 238.206836 226.543509 -271.487151 -37.091488 0.000004 0.000011 10.491445 0.176642 -51.673687 13.823272 0.000001 -0.000003 -11.887381 12.637947 28.513395 -0.000012 -0.000030 71.945976 28.402210 -29.302478 -28.196728 -0.000013 -0.000024 57.796165 -3.933797 -19.329796 -8.033581 -0.000007 20.734903 8.985126 -0.000003 -0.000006 -0.000005 -13.823271 0.000003 0.000000 -22.169863 -1.827502 -34.249936 0.000011 -0.000026 71.945946 35.453108 1.682033 33.681285 0.000002 -0.000030 57.796169 -25.640115 30.438216 -7.995904 -0.000002 20.734901 8.985126 -0.000001 -0.000005 -0.000000 
-5.440086 -18.698172 -118.074783 9.017486 0.317112 3.138983 -0.000001 0.000003 -11.335125 7.274119 -1.745775 -4.246442 0.000000 0.000007 -25.649008 3.881288 -0.657997 0.197846 -0.000006 0.000013 -28.413673 12.965873 -21.070843 18.399005 0.000030 2.764685 -21.426102 15.030922 -21.702899 -28.748215 5.517775 -0.602984 -23.183527 -2.507522 11.247771 2.898742 15.992204 0.000008 -0.000033 17.999154 8.491599 -16.980496 41.472103 0.000002 -0.000003 -2.273910 1.862054 2.652176 37.091522 -0.000025 -0.000009 -3.146827 -2.664160 34.594840 -5.529050 -0.602983 -23.183538 -0.127114 -6.731786 -9.194454 -15.992183 0.000008 -0.000027 83.090126 -34.058690 -27.182654 -41.472111 0.000010 0.000015 238.590747 227.029013 -271.530182 -37.091480 -0.000008 -0.000007 10.641967 -0.431629 -51.303375 13.823267 0.000001 -0.000030 -11.868407 12.808677 28.595007 -0.000003 -0.000032 71.945953 28.544797 -29.282759 -28.415175 -0.000013 -0.000021 57.796165 -3.958948 -19.354492 -8.037230 -0.000015 20.734896 8.985126 0.000004 0.000004 0.000001 -13.823273 -0.000002 -0.000045 -22.328898 -1.878398 -34.470411 0.000006 -0.000037 71.945992 35.647201 0.990388 33.981670 0.000021 -0.000030 57.796135 -25.971712 30.829995 -8.283222 0.000011 20.734905 8.985127 0.000004 -0.000002 0.000002 
